<svg width="259" height="46" viewBox="0 0 259 46" fill="none" xmlns="http://www.w3.org/2000/svg">
<path d="M205.818 4.84053C205.619 4.94287 205.584 5.2108 205.75 5.36337C206.55 6.09647 207.314 6.87235 207.981 7.74127C208.206 8.03526 208.427 8.33482 208.635 8.64182C208.643 8.65299 208.65 8.66787 208.656 8.68276C208.738 8.88929 208.526 9.11629 208.321 9.0307C208.289 9.01767 208.26 8.99721 208.235 8.9693C208.178 8.90232 208.115 8.84091 208.051 8.77951C203.171 3.89905 197.278 1.71838 190.414 2.26727C185.022 2.69893 180.434 4.91682 176.634 8.77021C176.573 8.83347 176.45 8.96186 176.45 8.96186C176.45 8.96186 176.398 9.01023 176.368 9.02326C176.165 9.11257 175.964 8.89301 176.033 8.6809C176.043 8.65485 176.052 8.63066 176.065 8.61205C177.127 7.04911 178.415 5.69271 179.918 4.55213C186.944 -0.786049 196.314 -1.09677 203.666 3.77997C204.144 4.09628 204.449 4.07767 204.909 3.77625C207.422 2.124 210.105 0.845734 213.069 0.233582C214.111 0.0177478 215.164 -0.112496 216.221 0.133109C217.315 0.388017 217.829 1.03738 217.864 2.16679C217.902 3.37249 217.488 4.46282 216.964 5.51036C216.326 6.78304 215.471 7.90873 214.472 8.92278C214.336 9.06047 214.162 9.32282 213.927 9.16653C213.795 9.04931 213.946 8.733 214.015 8.58601C214.569 7.41752 215.124 6.24532 215.196 4.92798C215.276 3.47668 214.642 2.80685 213.181 2.7287C212.054 2.66916 210.965 2.90175 209.893 3.20689C208.516 3.59949 207.188 4.14279 205.913 4.79216L205.818 4.84053Z" fill="#00AC8D"/>
<path d="M188.461 43.8487C186.838 43.5342 185.271 43.0226 183.809 42.3267C183.71 42.2802 183.692 42.1443 183.772 42.0699C184.088 41.7759 184.391 41.4913 184.698 41.2122C184.877 41.0522 185.067 41.1638 185.247 41.227C187.355 41.9397 189.521 42.3137 191.745 42.3825C193.458 42.4365 194.917 42.2151 195.724 42.0569C196.253 41.9527 196.727 41.8336 197.135 41.7183C197.297 41.6717 197.282 41.4392 197.116 41.4168C196.124 41.2829 194.9 41.1377 193.99 41.0075C193.841 40.987 193.734 40.8531 193.747 40.7024C193.756 40.5535 193.879 40.4363 194.029 40.4363C195.259 40.4307 196.995 40.4605 198.141 40.4512C198.493 40.4493 198.973 40.4493 199.569 40.4363C199.868 40.4288 200.112 40.4214 200.264 40.4177C200.352 40.4084 200.421 40.3395 200.43 40.2539C200.439 40.1665 200.382 40.0828 200.298 40.0567C200.011 39.9879 199.775 39.9376 199.626 39.9079C198.261 39.6306 196.926 39.4204 196.37 39.3348C196.219 39.3106 196.113 39.1748 196.124 39.024C196.124 39.0222 196.124 39.0185 196.124 39.0166C196.136 38.864 196.264 38.7468 196.417 38.7468L202.012 38.7543C202.015 38.7543 202.653 38.771 202.96 38.745C203.039 38.7431 203.106 38.6854 203.117 38.611C203.132 38.531 203.08 38.4472 202.994 38.4249C202.761 38.3654 202.529 38.3058 202.296 38.2444C200.651 37.8537 199.466 37.5765 199.269 37.5486C199.237 37.543 199.122 37.53 199.057 37.4444C199.029 37.4016 199.014 37.3476 199.02 37.2732C199.031 37.0964 199.129 37.0239 199.301 37.0313C199.392 37.035 199.459 37.0294 199.461 37.0294C199.589 37.0406 202.56 37.035 207.724 37.0127C207.86 37.0127 207.934 37.1746 207.843 37.275C206.793 38.4156 205.647 39.4278 204.471 40.2763C199.556 43.8133 193.708 44.8646 188.461 43.8487Z" fill="#00AC8D"/>
<path d="M170.214 45.7702C169.827 45.746 169.436 45.7478 169.053 45.692C167.565 45.4706 166.887 44.3486 167.213 42.6908C167.598 40.7222 168.608 39.0812 169.874 37.574C170.089 37.3173 170.331 37.081 170.558 36.8335C170.692 36.6884 170.815 36.5302 171.044 36.6865C171.282 36.8484 171.096 37.0065 171.029 37.1405C170.536 38.1434 170.097 39.163 169.892 40.2701C169.87 40.3911 169.844 40.5139 169.833 40.6348C169.697 42.248 170.346 42.9904 171.963 43.0369C173.424 43.0778 174.808 42.6964 176.17 42.2275C177.056 41.9224 177.919 41.5614 178.751 41.1297C179.997 40.4822 180.557 40.4487 179.936 39.9854C178.561 38.9602 176.429 36.506 176.105 35.9795C176.053 35.8957 175.917 35.6725 175.999 35.5441C176.042 35.4771 176.133 35.451 176.204 35.451C176.325 35.451 176.427 35.5534 176.529 35.6613C177.895 37.0866 179.422 38.3034 181.114 39.3249C181.482 39.5482 181.735 39.5054 182.059 39.2802C183.032 38.6086 183.998 37.9164 184.9 37.1517C185.036 37.0363 185.157 36.9563 185.257 36.9042C185.503 36.7758 185.806 37.0177 185.693 37.2708C185.684 37.2912 185.672 37.3098 185.657 37.3284C180.598 43.6658 172.826 45.3366 172.826 45.3366C171.98 45.5767 171.107 45.733 170.214 45.7702Z" fill="#00AC8D"/>
<path d="M184.308 8.68594C183.435 9.06551 182.542 8.36963 182.551 7.5342C182.557 6.84018 183.154 6.27641 183.861 6.29874C184.806 6.32851 185.527 7.47094 184.736 8.36963C184.617 8.5036 184.472 8.61337 184.308 8.68594Z" fill="#00AC8D"/>
<path d="M188.036 6.77428C187.45 6.78172 186.99 6.33517 186.985 5.75093C186.979 5.17227 187.435 4.70152 188.012 4.6978C188.583 4.69222 189.067 5.1611 189.074 5.72674C189.082 6.29051 188.611 6.7687 188.036 6.77428Z" fill="#00AC8D"/>
<path d="M193.015 4.96145C193.013 5.33916 192.68 5.67221 192.306 5.66849C191.93 5.66663 191.603 5.33544 191.603 4.95587C191.603 4.56885 191.921 4.25254 192.31 4.2544C192.697 4.25812 193.017 4.58002 193.015 4.96145Z" fill="#00AC8D"/>
<path d="M10.6323 33.4045C8.39205 33.4045 6.33604 32.9207 4.46609 31.9513C2.59615 30.9819 1.20253 29.7297 0.288951 28.191C-0.00503025 27.6867 -0.0738735 27.2699 0.0786992 26.9406C0.231272 26.6113 0.623868 26.3192 1.25649 26.0605L1.66025 25.9024C1.90585 25.8093 2.11796 25.7535 2.29286 25.7349C2.46962 25.7182 2.65383 25.7554 2.84733 25.8503C3.04084 25.9452 3.22504 26.0698 3.4018 26.228C3.57857 26.3861 3.81301 26.6243 4.10513 26.9406C5.86344 28.831 8.02736 29.7762 10.5969 29.7762C12.3329 29.7762 13.6837 29.4301 14.6512 28.738C15.6188 28.0458 16.1025 27.0764 16.1025 25.8317C16.1025 25.186 15.9295 24.626 15.5834 24.1496C15.2373 23.6733 14.7703 23.2938 14.1842 23.0054C13.5981 22.717 12.9264 22.4676 12.1692 22.2574C11.4119 22.0453 10.6155 21.8443 9.77637 21.6489C8.93722 21.4554 8.09993 21.2433 7.26078 21.0145C6.42163 20.7856 5.62527 20.4842 4.86799 20.1083C4.11071 19.7325 3.44088 19.2859 2.85292 18.7705C2.26681 18.2533 1.79979 17.5816 1.45371 16.7536C1.10763 15.9256 0.934594 14.9785 0.934594 13.9087C0.934594 11.7485 1.76072 9.98086 3.41483 8.6077C5.06894 7.23455 7.19751 6.54797 9.80055 6.54797C11.7356 6.54797 13.5739 6.97592 15.3155 7.83368C17.0571 8.69143 18.3204 9.78363 19.1056 11.1103C19.7029 12.1559 19.4164 12.8537 18.2441 13.2053L17.6469 13.3821C17.2134 13.5124 16.8487 13.5049 16.5565 13.3654C16.2626 13.224 15.829 12.889 15.2541 12.3606C14.4689 11.6443 13.667 11.1158 12.852 10.7754C12.037 10.4349 11.09 10.2637 10.0108 10.2637C8.45159 10.2637 7.21984 10.5893 6.31743 11.2405C5.41502 11.8917 4.96288 12.7811 4.96288 13.9087C4.96288 14.5897 5.13592 15.1776 5.482 15.6707C5.82808 16.1638 6.29696 16.5582 6.88865 16.8503C7.48033 17.1443 8.15761 17.3937 8.92047 17.5983C9.68333 17.803 10.4853 17.9984 11.33 18.1788C12.1747 18.3612 13.0157 18.5603 13.8549 18.778C14.694 18.9957 15.4941 19.2822 16.257 19.6413C17.0198 20.0004 17.6971 20.4339 18.2888 20.9438C18.8805 21.4554 19.3494 22.1234 19.6954 22.9514C20.0415 23.7794 20.2146 24.7395 20.2146 25.8317C20.2146 28.0979 19.3345 29.9269 17.5762 31.3187C15.8216 32.7086 13.5051 33.4045 10.6323 33.4045Z" fill="#002A4D"/>
<path d="M25.4441 33.0531C24.858 33.0531 24.4096 32.8968 24.0989 32.5861C23.7881 32.2754 23.6318 31.8325 23.6318 31.2557V7.51393C23.6318 6.939 23.7863 6.49616 24.0989 6.18357C24.4096 5.87285 24.858 5.71655 25.4441 5.71655H25.8665C26.4526 5.71655 26.901 5.87285 27.2117 6.18357C27.5224 6.4943 27.6787 6.939 27.6787 7.51393V16.1789C28.1364 15.0291 28.9458 14.0541 30.1069 13.2559C31.2679 12.4577 32.7043 12.0576 34.4161 12.0576C37.1829 12.0576 39.2631 12.8503 40.653 14.4355C42.0429 16.0208 42.7369 18.4973 42.7369 21.8688V31.2557C42.7369 31.8307 42.5806 32.2754 42.2699 32.5861C41.9592 32.8968 41.5107 33.0531 40.9246 33.0531H40.5023C39.9162 33.0531 39.4678 32.8968 39.157 32.5861C38.8463 32.2754 38.69 31.8325 38.69 31.2557V22.2037C38.69 19.9021 38.2435 18.2201 37.3522 17.1576C36.461 16.0952 35.0599 15.5631 33.1472 15.5631C31.2828 15.5631 29.9041 16.1566 29.0128 17.3418C28.1216 18.5271 27.675 20.3003 27.675 22.6614V31.2557C27.675 31.8307 27.5187 32.2754 27.208 32.5861C26.8973 32.8968 26.4488 33.0531 25.8627 33.0531H25.4441Z" fill="#002A4D"/>
<path d="M63.9168 12.4298C64.5029 12.4298 64.9495 12.5861 65.2546 12.8968C65.5598 13.2076 65.7123 13.6523 65.7123 14.2272V31.2576C65.7123 31.8456 65.5598 32.2903 65.2546 32.5954C64.9495 32.9006 64.5048 33.0532 63.9168 33.0532H63.4777C62.9028 33.0532 62.4599 32.9006 62.1492 32.5954C61.8385 32.2903 61.6822 31.8437 61.6822 31.2576V29.1961C61.1891 30.452 60.3593 31.4679 59.1927 32.2438C58.026 33.0178 56.6101 33.4067 54.9448 33.4067C52.1185 33.4067 50.0253 32.5936 48.6651 30.9674C47.305 29.3412 46.624 26.8851 46.624 23.5974V14.2272C46.624 13.6523 46.7785 13.2094 47.091 12.8968C47.4018 12.5861 47.8446 12.4298 48.4195 12.4298H48.8587C49.4448 12.4298 49.8913 12.5861 50.1965 12.8968C50.5016 13.2076 50.6542 13.6523 50.6542 14.2272V23.2792C50.6542 25.5455 51.1026 27.2182 51.9994 28.2992C52.8963 29.3803 54.2955 29.9198 56.1952 29.9198C58.0949 29.9198 59.4848 29.3189 60.3649 28.115C61.2449 26.9112 61.6841 25.1417 61.6841 22.8047V14.2272C61.6841 13.6523 61.8404 13.2094 62.1511 12.8968C62.4618 12.5861 62.9046 12.4298 63.4796 12.4298H63.9168Z" fill="#002A4D"/>
<path d="M81.4201 12.0594C84.2464 12.0594 86.3396 12.8725 87.6998 14.4987C89.0599 16.125 89.7409 18.5829 89.7409 21.8688V31.2557C89.7409 31.8306 89.5846 32.2753 89.2739 32.5861C88.9632 32.8968 88.5147 33.0531 87.9286 33.0531H87.5063C86.9202 33.0531 86.4718 32.8968 86.161 32.5861C85.8503 32.2753 85.694 31.8325 85.694 31.2557V22.2037C85.694 19.9374 85.2456 18.2647 84.3488 17.1837C83.4519 16.1045 82.0527 15.563 80.153 15.563C78.2533 15.563 76.8653 16.1622 75.9926 17.3604C75.1181 18.5587 74.6827 20.3244 74.6827 22.6614V31.2557C74.6827 31.8306 74.5264 32.2753 74.2176 32.5861C73.9068 32.8968 73.4584 33.0531 72.8723 33.0531H72.45C71.8639 33.0531 71.4154 32.8968 71.1047 32.5861C70.794 32.2753 70.6377 31.8325 70.6377 31.2557V14.2252C70.6377 13.6503 70.7921 13.2075 71.1047 12.8949C71.4154 12.5842 71.8639 12.4279 72.45 12.4279H72.8723C73.4584 12.4279 73.9068 12.5842 74.2176 12.8949C74.5283 13.2056 74.6827 13.6503 74.6827 14.2252V16.2682C75.1758 15.0123 76.0057 13.9964 77.1723 13.2205C78.3389 12.4465 79.7548 12.0594 81.4201 12.0594Z" fill="#002A4D"/>
<path d="M99.0637 39.7291C98.4069 39.7291 97.9585 39.5319 97.7185 39.1393C97.4785 38.7449 97.4934 38.2313 97.7632 37.5987L99.8564 32.9136L91.8519 14.5081C91.5821 13.8867 91.5728 13.3843 91.8258 13.0029C92.077 12.6215 92.5329 12.4298 93.1897 12.4298H93.8763C94.8605 12.4298 95.5527 12.8931 95.9527 13.8216L102.004 28.5448L108.073 13.8216C108.471 12.895 109.163 12.4298 110.149 12.4298H110.765C111.457 12.4298 111.932 12.6215 112.191 13.0029C112.449 13.3843 112.442 13.8867 112.174 14.5081L101.866 38.356C101.479 39.2714 100.77 39.7291 99.7373 39.7291H99.0637Z" fill="#002A4D"/>
<path d="M123.271 33.529C121.968 33.529 120.751 33.2964 119.62 32.8331C118.489 32.3698 117.486 31.7 116.612 30.8255C115.737 29.951 115.049 28.8179 114.544 27.4261C114.04 26.0343 113.787 24.4695 113.787 22.7317C113.787 21.005 114.036 19.4533 114.535 18.0727C115.034 16.6939 115.72 15.5682 116.593 14.6993C117.467 13.8304 118.467 13.1661 119.592 12.7084C120.718 12.2507 121.933 12.0219 123.234 12.0219C124.888 12.0219 126.374 12.4126 127.694 13.1922C129.013 13.9737 129.965 15.0621 130.551 16.4595V14.223C130.551 13.6481 130.706 13.2052 131.019 12.8926C131.329 12.5819 131.772 12.4256 132.347 12.4256H132.786C133.372 12.4256 133.819 12.5819 134.124 12.8926C134.429 13.2034 134.582 13.6481 134.582 14.223V31.2181C134.582 31.8061 134.429 32.2508 134.124 32.5559C133.819 32.861 133.374 33.0136 132.786 33.0136H132.347C131.772 33.0136 131.329 32.861 131.019 32.5559C130.708 32.2508 130.551 31.8042 130.551 31.2181V29.123C129.977 30.4962 129.028 31.5735 127.701 32.3549C126.378 33.1383 124.901 33.529 123.271 33.529ZM124.274 30.0589C126.185 30.0589 127.727 29.3984 128.901 28.0773C130.073 26.7563 130.659 24.9756 130.659 22.7317C130.659 20.5008 130.068 18.7313 128.882 17.4214C127.697 16.1115 126.138 15.4585 124.203 15.4585C122.292 15.4585 120.751 16.1097 119.585 17.414C118.418 18.7164 117.834 20.4896 117.834 22.7336C117.834 24.9998 118.42 26.7879 119.592 28.0959C120.766 29.404 122.327 30.0589 124.274 30.0589Z" fill="#002A4D"/>
<path d="M147.759 33.0885C146.74 33.0885 146.029 32.6308 145.631 31.7154L138.136 14.5081C137.866 13.8867 137.851 13.3843 138.091 13.0029C138.331 12.6215 138.78 12.4298 139.437 12.4298H140.123C141.121 12.4298 141.818 12.8931 142.216 13.8216L148.267 28.6509L154.318 13.8216C154.716 12.895 155.414 12.4298 156.411 12.4298H157.062C157.743 12.4298 158.207 12.6215 158.452 13.0029C158.698 13.3843 158.687 13.8867 158.417 14.5081L150.887 31.7154C150.489 32.6308 149.797 33.0885 148.811 33.0885H147.759Z" fill="#002A4D"/>
<path d="M178.773 30.8166C179.324 31.3916 179.508 31.9088 179.328 32.3665C179.145 32.8242 178.662 33.0531 177.876 33.0531H176.892C176.012 33.0531 175.268 32.7312 174.658 32.0837L166.056 22.907V31.2557C166.056 31.8307 165.899 32.2754 165.589 32.5861C165.278 32.8968 164.83 33.0531 164.244 33.0531H163.821C163.235 33.0531 162.787 32.8968 162.476 32.5861C162.165 32.2754 162.011 31.8325 162.011 31.2557V7.51393C162.011 6.939 162.165 6.49616 162.476 6.18357C162.787 5.87285 163.235 5.71655 163.821 5.71655H164.244C164.83 5.71655 165.278 5.87285 165.589 6.18357C165.899 6.4943 166.056 6.939 166.056 7.51393V21.9041L174.271 13.3619C174.881 12.7405 175.614 12.4279 176.47 12.4279H177.367C178.176 12.4279 178.675 12.6623 178.863 13.1331C179.051 13.602 178.851 14.1136 178.265 14.6662L170.419 22.3451L178.773 30.8166Z" fill="#002A4D"/>
<path d="M201.291 12.8967C200.986 12.5859 200.539 12.4296 199.953 12.4296H199.512C198.937 12.4296 198.494 12.5859 198.184 12.8967C197.873 13.2074 197.718 13.6502 197.718 14.2252V16.4616C197.131 15.0643 196.178 13.9758 194.859 13.1962C193.539 12.4148 192.055 12.0259 190.401 12.0259C189.098 12.0259 187.885 12.2547 186.757 12.7125C185.632 13.1683 184.633 13.8326 183.76 14.7015C182.885 15.5704 182.199 16.6961 181.702 18.0748C181.203 19.4554 180.954 21.0072 180.954 22.7339C180.954 24.4717 181.207 26.0347 181.711 27.4283C182.216 28.82 182.904 29.9532 183.777 30.8258C184.651 31.7003 185.654 32.372 186.785 32.8353C187.018 32.9302 187.254 33.0158 187.494 33.0902C187.785 32.7665 188.84 31.5515 189.79 30.0127C189.813 29.9755 189.835 29.9383 189.859 29.8992C190.188 29.3578 190.505 28.7772 190.767 28.1818C190.767 28.1818 190.561 28.9261 190.185 29.9606C190.17 30.0034 190.155 30.0481 190.138 30.0909C189.774 31.0751 189.267 32.2957 188.646 33.3749C189.223 33.4772 189.818 33.5293 190.434 33.5293C192.066 33.5293 193.543 33.1404 194.868 32.359C196.195 31.5794 197.142 30.5002 197.718 29.127V31.224C197.718 31.8119 197.873 32.2566 198.184 32.5636C198.494 32.8688 198.937 33.0214 199.512 33.0214H199.953C200.539 33.0214 200.986 32.8688 201.291 32.5636C201.596 32.2585 201.749 31.8138 201.749 31.224V14.2289C201.749 13.6502 201.596 13.2074 201.291 12.8967ZM192.349 26.5482C191.59 26.271 190.806 26.0719 190.017 25.9509C188.683 25.7481 187.321 25.7667 185.989 26.0086C187.21 24.8978 188.598 24.0735 190.066 23.5433C190.142 23.0223 190.265 22.5106 190.434 22.0082C190.892 20.6332 191.683 19.3456 192.799 18.2721C192.862 18.2125 192.927 18.1511 192.994 18.0972C193.634 19.6006 193.854 21.2398 193.653 22.8325C193.586 23.3851 193.471 23.9321 193.303 24.4699C194.286 25.6197 195.021 26.9092 195.504 28.2618C194.527 27.5232 193.461 26.9501 192.349 26.5482Z" fill="#002A4D"/>
<path d="M215.082 33.4047C213.324 33.4047 211.619 33.0791 209.971 32.4279C208.322 31.7767 207.077 30.9171 206.233 29.8472C205.868 29.3783 205.766 28.9262 205.926 28.4908C206.084 28.0572 206.462 27.7502 207.061 27.5753L207.431 27.4693C207.794 27.3279 208.158 27.3055 208.521 27.3986C208.884 27.4935 209.312 27.7577 209.805 28.1912C211.119 29.3653 212.872 29.9532 215.065 29.9532C216.567 29.9532 217.739 29.6983 218.584 29.1867C219.428 28.675 219.851 27.9679 219.851 27.0637C219.851 26.5594 219.698 26.1278 219.393 25.7687C219.088 25.4114 218.679 25.1286 218.161 24.9239C217.646 24.7193 217.052 24.5425 216.384 24.3955C215.716 24.2485 215.013 24.1108 214.273 23.9806C213.534 23.8522 212.797 23.7071 212.064 23.5489C211.331 23.3908 210.629 23.1712 209.961 22.8884C209.293 22.6074 208.7 22.2688 208.185 21.8762C207.669 21.4836 207.258 20.9608 206.953 20.3095C206.648 19.6583 206.495 18.9029 206.495 18.047C206.495 16.8264 206.878 15.751 207.647 14.8244C208.415 13.8978 209.42 13.2037 210.663 12.746C211.906 12.2883 213.272 12.0594 214.762 12.0594C216.157 12.0594 217.588 12.3274 219.054 12.8614C220.521 13.3954 221.687 14.1155 222.554 15.0197C222.977 15.4663 223.129 15.9073 223.012 16.3408C222.895 16.7762 222.543 17.0813 221.957 17.2562L221.587 17.3623C221.352 17.433 221.144 17.4739 220.962 17.4851C220.779 17.4962 220.575 17.4553 220.346 17.3623C220.117 17.2692 219.949 17.193 219.845 17.1334C219.739 17.0739 219.516 16.9399 219.177 16.7278C217.687 15.8347 216.234 15.39 214.814 15.39C213.476 15.39 212.416 15.604 211.63 16.0319C210.845 16.4599 210.453 17.0683 210.453 17.8553C210.453 18.3484 210.605 18.7652 210.91 19.1057C211.216 19.4462 211.629 19.7141 212.151 19.9076C212.672 20.1011 213.272 20.2686 213.945 20.41C214.619 20.5514 215.329 20.6854 216.074 20.8156C216.818 20.9459 217.562 21.0891 218.308 21.2473C219.053 21.4055 219.761 21.6324 220.437 21.9246C221.11 22.2186 221.71 22.5702 222.231 22.9814C222.752 23.3926 223.166 23.9359 223.472 24.6113C223.777 25.2868 223.929 26.0701 223.929 26.9632C223.929 28.8778 223.103 30.4296 221.449 31.6222C219.797 32.8093 217.674 33.4047 215.082 33.4047Z" fill="#002A4D"/>
<path d="M229.192 33.0531C228.606 33.0531 228.157 32.8968 227.846 32.5861C227.536 32.2754 227.379 31.8325 227.379 31.2557V7.51393C227.379 6.939 227.534 6.49616 227.846 6.18357C228.157 5.87285 228.606 5.71655 229.192 5.71655H229.614C230.2 5.71655 230.649 5.87285 230.959 6.18357C231.27 6.4943 231.424 6.939 231.424 7.51393V16.1789C231.882 15.0291 232.692 14.0541 233.853 13.2559C235.014 12.4577 236.45 12.0576 238.162 12.0576C240.93 12.0576 243.009 12.8503 244.399 14.4355C245.789 16.0208 246.483 18.4973 246.483 21.8688V31.2557C246.483 31.8307 246.326 32.2754 246.016 32.5861C245.705 32.8968 245.256 33.0531 244.67 33.0531H244.248C243.662 33.0531 243.213 32.8968 242.903 32.5861C242.592 32.2754 242.436 31.8325 242.436 31.2557V22.2037C242.436 19.9021 241.989 18.2201 241.098 17.1576C240.207 16.0952 238.806 15.5631 236.893 15.5631C235.028 15.5631 233.65 16.1566 232.758 17.3418C231.867 18.5271 231.421 20.3003 231.421 22.6614V31.2557C231.421 31.8307 231.264 32.2754 230.956 32.5861C230.645 32.8968 230.196 33.0531 229.61 33.0531H229.192Z" fill="#002A4D"/>
<path d="M211.409 45.5218C211.162 45.5218 210.974 45.4548 210.844 45.3209C210.714 45.1869 210.648 44.9953 210.648 44.7441V37.8243C210.648 37.5732 210.714 37.3797 210.844 37.2438C210.974 37.108 211.164 37.041 211.409 37.041H213.069C214.507 37.041 215.534 37.2848 216.147 37.7704C216.759 38.256 217.066 39.058 217.066 40.1743C217.066 41.287 216.763 42.0834 216.154 42.5634C215.546 43.0434 214.526 43.2835 213.09 43.2835H212.457V44.7422C212.457 44.9934 212.392 45.1869 212.262 45.319C212.131 45.453 211.942 45.52 211.696 45.52H211.409V45.5218ZM213.367 41.661C214.014 41.661 214.483 41.5438 214.777 41.3093C215.071 41.0749 215.218 40.6879 215.218 40.1464C215.218 39.6124 215.071 39.2291 214.777 38.9966C214.483 38.764 214.014 38.6486 213.367 38.6486H212.459V41.661H213.367Z" fill="#002A4D"/>
<path d="M221.301 45.5221C220.867 45.5221 220.573 45.3155 220.42 44.9043L217.758 37.94C217.657 37.6739 217.663 37.4562 217.775 37.2906C217.886 37.125 218.084 37.0413 218.363 37.0413H218.733C219.152 37.0413 219.44 37.2534 219.596 37.6757L221.609 43.3526L223.617 37.6757C223.77 37.2534 224.058 37.0413 224.48 37.0413H224.856C225.137 37.0413 225.333 37.125 225.444 37.2924C225.556 37.4599 225.561 37.6776 225.461 37.9437L222.787 44.9025C222.631 45.3137 222.337 45.5202 221.907 45.5202H221.301V45.5221Z" fill="#002A4D"/>
<path d="M228.78 45.5226C228.532 45.5226 228.344 45.4557 228.214 45.3217C228.084 45.1877 228.019 44.9961 228.019 44.7449V38.696H226.752C226.504 38.696 226.316 38.629 226.186 38.4931C226.056 38.3573 225.991 38.1638 225.991 37.9126V37.827C225.991 37.5758 226.056 37.3823 226.186 37.2465C226.316 37.1107 226.506 37.0437 226.752 37.0437H231.08C231.327 37.0437 231.517 37.1107 231.649 37.2465C231.781 37.3823 231.848 37.5758 231.848 37.827V37.9126C231.848 38.1638 231.781 38.3573 231.649 38.4931C231.517 38.629 231.327 38.696 231.08 38.696H229.829V44.7449C229.829 44.9961 229.762 45.1896 229.63 45.3217C229.498 45.4557 229.308 45.5226 229.061 45.5226H228.78Z" fill="#002A4D"/>
<path d="M232.47 45.6077C232.174 45.6077 231.936 45.5296 231.752 45.3733C231.57 45.217 231.477 44.9956 231.477 44.7109C231.477 44.4244 231.568 44.2048 231.752 44.0485C231.934 43.8922 232.174 43.8141 232.47 43.8141C232.751 43.8141 232.987 43.8941 233.179 44.0541C233.371 44.2141 233.467 44.4337 233.467 44.7109C233.467 44.99 233.371 45.2077 233.179 45.3677C232.986 45.5277 232.749 45.6077 232.47 45.6077Z" fill="#002A4D"/>
<path d="M238.703 45.5221C238.455 45.5221 238.268 45.4551 238.137 45.3211C238.007 45.1872 237.942 44.9955 237.942 44.7443V37.8246C237.942 37.5734 238.007 37.3799 238.137 37.2441C238.268 37.1082 238.457 37.0413 238.703 37.0413H238.989C239.237 37.0413 239.425 37.1082 239.555 37.2441C239.685 37.3799 239.75 37.5734 239.75 37.8246V43.8735H242.069C242.316 43.8735 242.504 43.9405 242.638 44.0763C242.77 44.2122 242.837 44.4057 242.837 44.6569V44.7425C242.837 44.9936 242.77 45.1871 242.638 45.3193C242.506 45.4532 242.316 45.5202 242.069 45.5202H238.703V45.5221Z" fill="#002A4D"/>
<path d="M245.011 45.5226C244.764 45.5226 244.576 45.4557 244.446 45.3217C244.315 45.1877 244.25 44.9961 244.25 44.7449V38.696H242.983C242.736 38.696 242.548 38.629 242.418 38.4931C242.287 38.3573 242.222 38.1638 242.222 37.9126V37.827C242.222 37.5758 242.287 37.3823 242.418 37.2465C242.548 37.1107 242.738 37.0437 242.983 37.0437H247.311C247.559 37.0437 247.748 37.1107 247.88 37.2465C248.012 37.3823 248.079 37.5758 248.079 37.827V37.9126C248.079 38.1638 248.012 38.3573 247.88 38.4931C247.748 38.629 247.559 38.696 247.311 38.696H246.061V44.7449C246.061 44.9961 245.994 45.1896 245.862 45.3217C245.729 45.4557 245.54 45.5226 245.292 45.5226H245.011Z" fill="#002A4D"/>
<path d="M250 45.5221C249.752 45.5221 249.564 45.4551 249.434 45.3211C249.304 45.1872 249.239 44.9955 249.239 44.7443V37.8246C249.239 37.5734 249.304 37.3799 249.434 37.2441C249.564 37.1082 249.754 37.0413 250 37.0413H251.609C252.443 37.0413 253.159 37.1306 253.756 37.3092C254.354 37.4878 254.839 37.7595 255.21 38.1204C255.58 38.4833 255.85 38.9224 256.023 39.4415C256.194 39.9606 256.281 40.5728 256.281 41.2817C256.281 41.9831 256.196 42.5916 256.023 43.1088C255.851 43.6261 255.58 44.0652 255.21 44.4299C254.839 44.7946 254.356 45.0662 253.756 45.2467C253.159 45.4272 252.443 45.5183 251.609 45.5183H250V45.5221ZM251.684 43.8754C252.376 43.8754 252.925 43.7786 253.334 43.587C253.743 43.3954 254.032 43.1125 254.201 42.7404C254.37 42.3683 254.454 41.8808 254.454 41.2742C254.454 40.6677 254.369 40.1802 254.199 39.8099C254.03 39.4396 253.738 39.1587 253.327 38.9633C252.915 38.7698 252.363 38.6712 251.667 38.6712H251.049V43.8735H251.684V43.8754Z" fill="#002A4D"/>
<path d="M258.003 45.6077C257.708 45.6077 257.469 45.5296 257.285 45.3733C257.103 45.217 257.01 44.9956 257.01 44.7109C257.01 44.4244 257.101 44.2048 257.285 44.0485C257.467 43.8922 257.708 43.8141 258.003 43.8141C258.284 43.8141 258.521 43.8941 258.712 44.0541C258.904 44.2141 259.001 44.4337 259.001 44.7109C259.001 44.99 258.904 45.2077 258.712 45.3677C258.519 45.5277 258.282 45.6077 258.003 45.6077Z" fill="#002A4D"/>
</svg>
